<svg xmlns="http://www.w3.org/2000/svg" width="210mm" height="210mm" viewBox="0 0 210 210">
  <path style="fill:#0D53CEFF;fill-opacity:0.7;stroke:#000103;stroke-width:7.55905522;stroke-miterlimit:4;stroke-dasharray:none;stroke-opacity:1" d="m390 20-16 30-8 30-21 2-16-26-23-25-13 4-8 33v30l-20 9-22-22-28-18-13 7 2 34 7 30-17 13-26-16-33-9-9 9 9 33 16 26-13 17-30-7-34-2-7 13 18 28 22 22-9 20H68l-33 8-4 13 25 23 26 16-2 21-30 8-30 16v14l30 16 30 8 2 21-26 16-25 23 4 13 33 8h30l9 20-22 22-18 28 7 12 34-1 30-8 13 17-16 27-9 32 9 10 33-10 26-15 17 13-7 30-2 34 13 7 28-18 22-22 20 8v31l8 33 13 4 23-25 16-27 21 3 8 30 16 30h14l16-30 8-30 21-3 16 27 23 25 13-4 8-33v-31l20-8 22 22 28 18 12-7-1-34-8-30 17-13 27 15 32 10 10-10-10-32-15-27 13-17 30 8 34 1 7-12-18-28-22-22 8-20h31l33-8 4-13-25-23-27-16 3-21 30-8 30-16v-14l-30-16-30-8-3-21 27-16 25-23-4-13-33-8h-31l-8-20 22-22 18-28-7-13-34 2-30 7-13-17 15-26 10-33-10-9-32 9-27 16-17-13 8-30 1-34-12-7-28 18-22 22-20-9V68l-8-33-13-4-23 25-16 26-21-2-8-30-16-30h-14zm41 116a263 263 0 0 1 227 227H474a84 84 0 0 0-43-43V136zm-68 0v184a84 84 0 0 0-43 43H136a263 263 0 0 1 227-227zm34 19a19 19 0 0 1 18 19 19 19 0 0 1-18 19 19 19 0 0 1-19-19 19 19 0 0 1 19-19zm0 100a19 19 0 0 1 18 19 19 19 0 0 1-18 19 19 19 0 0 1-19-19 19 19 0 0 1 19-19zm0 92a50 50 0 0 1 50 50 50 50 0 0 1-50 50 50 50 0 0 1-50-50 50 50 0 0 1 50-50zm-223 31a19 19 0 0 1 19 19 19 19 0 0 1-19 18 19 19 0 0 1-19-18 19 19 0 0 1 19-19zm106 0a19 19 0 0 1 18 19 19 19 0 0 1-18 18 19 19 0 0 1-19-18 19 19 0 0 1 19-19zm237 0a19 19 0 0 1 18 19 19 19 0 0 1-18 18 19 19 0 0 1-19-18 19 19 0 0 1 19-19zm103 0a19 19 0 0 1 18 19 19 19 0 0 1-18 18 19 19 0 0 1-19-18 19 19 0 0 1 19-19zm-300 53a84 84 0 0 0 43 43v184a263 263 0 0 1-227-227h184zm154 0h184a263 263 0 0 1-227 227V474a84 84 0 0 0 43-43zm-77 70a19 19 0 0 1 18 19 19 19 0 0 1-18 18 19 19 0 0 1-19-18 19 19 0 0 1 19-19zm0 100a19 19 0 0 1 18 19 19 19 0 0 1-18 18 19 19 0 0 1-19-18 19 19 0 0 1 19-19z" transform="scale(.26458)"/>
</svg>
