<svg xmlns="http://www.w3.org/2000/svg" width="378" height="378" viewBox="0 0 100 100">
    <g transform="translate(0 -197)">
        <circle style="fill:#4ecdc4;fill-opacity:1;stroke:#000;stroke-width:4;stroke-miterlimit:4;stroke-dasharray:none;stroke-opacity:1" cx="50" cy="247" r="42"/>
        <circle style="fill:none;fill-opacity:1;stroke:#000;stroke-width:2.5;stroke-miterlimit:4;stroke-dasharray:none;stroke-opacity:1" cx="63.5" cy="233.6" r="3.6"/>
        <path style="fill:none;stroke:#000;stroke-width:4;stroke-linecap:butt;stroke-linejoin:miter;stroke-miterlimit:4;stroke-dasharray:none;stroke-opacity:1" d="M60.9 247h10.5M28.7 247h10.6"/>
        <circle style="fill:none;fill-opacity:1;stroke:#000;stroke-width:4;stroke-miterlimit:4;stroke-dasharray:none;stroke-opacity:1" cx="50" cy="247" r="10.6"/>
        <path style="fill:none;stroke:#000;stroke-width:4;stroke-linecap:butt;stroke-linejoin:miter;stroke-miterlimit:4;stroke-dasharray:none;stroke-opacity:1" d="M36 224.9h28a8 8 0 0 1 8.1 8v28.2a8 8 0 0 1-8 8H35.9a8 8 0 0 1-8-8v-28.2a8 8 0 0 1 8-8z"/>
        <path style="opacity:1;vector-effect:none;fill:#000;fill-opacity:1;stroke:#000;stroke-width:4;stroke-linecap:butt;stroke-linejoin:miter;stroke-miterlimit:4;stroke-dasharray:none;stroke-dashoffset:0;stroke-opacity:1" d="M30.6 237.3c0-6.2.2-7 1.9-8.7 1.8-1.8 2-1.8 16-1.8 9 0 13.6.3 12.6.7-2.3 1-3.5 3.6-3 6.5.4 2.5.3 2.5-1.3 1.5-3-2-7.5-2.2-11.2-.6-3.5 1.6-7.4 5.8-7.4 8 0 1-.8 1.3-3.8 1.3h-3.8zM62.2 242l-1.5-3 2.5.4c2 .3 2.9 0 4.5-1.6 1.7-1.8 2-2.5 1.6-5-.2-1.7 0-2.8.3-2.6.4.3.7 3.7.7 7.6v7.1H67c-3.1 0-3.4-.2-4.8-3z"/>
        <path style="opacity:1;vector-effect:none;fill:#000;fill-opacity:1;stroke:#000;stroke-width:5.39932537;stroke-linecap:butt;stroke-linejoin:miter;stroke-miterlimit:4;stroke-dasharray:none;stroke-dashoffset:0;stroke-opacity:1" d="M251.9 124.6a18 18 0 0 0-12.3-4.6l-2-.1s.2-.8.6-1.5c.5-1 .8-2.1.8-3.6v-2l3.7.1a23.3 23.3 0 0 1 15 6c.2.3-.2 1-.8 1.5-1.3 1.3-2.6 4-2.6 5.2 0 .4-.1.8-.3.8a13 13 0 0 1-2.1-1.8z" transform="matrix(.26458 0 0 .26458 0 197)"/>
    </g>
</svg>
