<svg xmlns="http://www.w3.org/2000/svg" width="378" height="378" viewBox="0 0 100 100">
  <g transform="translate(0 -197)">
    <circle style="fill:#4ecdc4;fill-opacity:1;stroke:#000;stroke-width:4;stroke-miterlimit:4;stroke-dasharray:none;stroke-opacity:1" cx="50" cy="247" r="42"/>
    <path style="fill:#000;fill-opacity:1;stroke:#000;stroke-width:.62435734;stroke-miterlimit:4;stroke-dasharray:none;stroke-opacity:1" d="M58.3 226.7c-4.4-.1-8 3.6-8 8.3 0 1.5.3 3 1 4.2a41.8 41.8 0 0 1-19.1-9.4c-1 2.5-.1 10.6 6 14.1 2 1.8-.4-.7 1.2.5-2-.6-5-1.6-7-2.6 0 2.2 2.5 7.9 5.7 9.9l2.6 1.6c-1.7 0-3.7-.5-5.5-.8.7 2.1 3.4 6.5 7 7.3l.4.1a21 21 0 0 1-12.4 1 21.8 21.8 0 0 0 35.3-6.7 25.9 25.9 0 0 0 1.3-19c1.3-1.2 2.6-2.8 3.7-4.7-1.5 1.1-3.1 1.8-4.7 2.1l-.2-.3c1.4-1.3 2.6-2.9 3.7-4.8-1.7 1.3-3.4 2-5.2 2.2a7.7 7.7 0 0 0-5.8-3z"/>
  </g>
</svg>
